<svg xmlns="http://www.w3.org/2000/svg" viewBox="0 0 230 46"><defs><style>.cls-1{fill:#ec6c6b;}.cls-2{fill:#fff;}</style></defs><g id="レイヤー_2" data-name="レイヤー 2"><g id="レイヤー_1-2" data-name="レイヤー 1"><path class="cls-1" d="M23,45A22,22,0,0,1,23,1H207a22,22,0,0,1,0,44Z"/><path class="cls-1" d="M207,2a21,21,0,0,1,0,42H23A21,21,0,0,1,23,2H207m0-2H23A23,23,0,0,0,0,23H0A23,23,0,0,0,23,46H207a23,23,0,0,0,23-23h0A23,23,0,0,0,207,0Z"/><path class="cls-2" d="M81.15,18.73a3.3,3.3,0,0,0-.27.72c-1.25,5.05-4.13,8.33-9.11,10.39a5.77,5.77,0,0,0-1.41-1.9,11.63,11.63,0,0,0,8.36-8.61H71.1a11.82,11.82,0,0,0-2,.09V17.34a10.7,10.7,0,0,0,2,.11h7.35a8.21,8.21,0,0,0,1.15-.05,9,9,0,0,0-1-1.61l1.17-.43a9.78,9.78,0,0,1,1.42,2.53l-.64.25Zm.95-1.13a11.09,11.09,0,0,0-1.38-2.48l1.15-.44a8.85,8.85,0,0,1,1.41,2.44Z"/><path class="cls-2" d="M86.4,27.76v1.12H84.33a10.46,10.46,0,0,0,.06-1.38V18.33A10.25,10.25,0,0,0,84.33,17c.39,0,.72.05,1.36.05h9.09c.69,0,1,0,1.35-.05,0,.41,0,.73,0,1.33v9.15a13,13,0,0,0,.06,1.4H94.08V27.76Zm7.68-8.91H86.4v7.09h7.68Z"/><path class="cls-2" d="M110.75,18.75a3.49,3.49,0,0,0-.4,1,15.67,15.67,0,0,1-3.22,6.05,16.18,16.18,0,0,1-5.69,4,5.5,5.5,0,0,0-1.36-1.68,12.88,12.88,0,0,0,8.17-8.63l-4.81.07a16,16,0,0,1-3.75,4.11,4.21,4.21,0,0,0-1.55-1.38,12.5,12.5,0,0,0,4.14-4.64,6.2,6.2,0,0,0,.82-2.13l2.19.45a2.22,2.22,0,0,0-.27.48c-.13.29-.27.61-.43.93a2.07,2.07,0,0,0-.11.22l-.13.24c.19,0,.45,0,.77,0l3.5-.05a6.69,6.69,0,0,0,.83,0,9.67,9.67,0,0,0-1.16-2l1.18-.4a10.15,10.15,0,0,1,1.43,2.53l-.69.25Zm1-1.15a11.48,11.48,0,0,0-1.37-2.48l1.15-.4A9.45,9.45,0,0,1,113,17.15Z"/><path class="cls-2" d="M115.42,16.81a8.48,8.48,0,0,0-.1-1.55h1.88a9.75,9.75,0,0,0-.1,1.57v1.36h.53a9,9,0,0,0,1.39-.1v1.75a12.4,12.4,0,0,0-1.36-.08h-.53A12.21,12.21,0,0,0,119.44,23a5.94,5.94,0,0,0-.87,1.62A11.84,11.84,0,0,1,117,22a18.46,18.46,0,0,1,.08,2.34v3.94a11.72,11.72,0,0,0,.1,1.74h-1.86a13.21,13.21,0,0,0,.1-1.73V25.09a21.73,21.73,0,0,1,.09-2.39,14.76,14.76,0,0,1-2.16,4,6,6,0,0,0-.9-1.68,16.8,16.8,0,0,0,2.82-5.3h-.83a14.22,14.22,0,0,0-1.54.08V18.09a10.58,10.58,0,0,0,1.56.1h.94ZM125.63,28c0,.9-.22,1.34-.73,1.55a4.87,4.87,0,0,1-1.78.19c-.42,0-.56,0-1.67-.06a5.13,5.13,0,0,0-.48-1.78l.48.07a14.22,14.22,0,0,0,1.78.13c.53,0,.66-.08.66-.45V19.89h-2.76a15,15,0,0,0-1.79.09V18.2a11.87,11.87,0,0,0,1.78.1h2.77V17.2a12.41,12.41,0,0,0-.11-1.88h2a14.25,14.25,0,0,0-.1,1.89V18.3h.11a9.21,9.21,0,0,0,1.56-.1V20a13.87,13.87,0,0,0-1.51-.06h-.16Zm-4.22-2.21a14.72,14.72,0,0,0-2-4.05l1.5-.74a14.9,14.9,0,0,1,2,3.85Z"/><path class="cls-2" d="M128.23,17.82a6.59,6.59,0,0,0,1.28.08h2.74a8.31,8.31,0,0,0,1.28-.06v1.65a6.75,6.75,0,0,0-1.21-.07h-2.81a9.66,9.66,0,0,0-1.28.07Zm9.27,5.84c0,.28,0,.48-.05.76-.11,1.93-.38,2.89-1.1,3.8a6.42,6.42,0,0,1-2.58,1.88,4.06,4.06,0,0,0-.57-1c-.34,0-.56,0-.77,0h-2.19v.8h-1.57c0-.52.08-1.09.08-1.56V26a9.59,9.59,0,0,0-.07-1.23,5.68,5.68,0,0,0,1.07.05h2.66a7.69,7.69,0,0,0,1-.05,6.07,6.07,0,0,0-.05,1.15v2.55a5.51,5.51,0,0,0,1.44-.93,4.17,4.17,0,0,0,1.06-3.14,3.43,3.43,0,0,0-.06-.73Zm-8.74-8.06a10.75,10.75,0,0,0,1.3.06H132a11,11,0,0,0,1.3-.06v1.53a9.52,9.52,0,0,0-1.3-.06h-1.95a9.34,9.34,0,0,0-1.3.06Zm0,4.65a6.78,6.78,0,0,0,1,.05h2.53a6.1,6.1,0,0,0,1-.05v1.49a8.24,8.24,0,0,0-1,0h-2.53a8.25,8.25,0,0,0-1,0Zm0,2.24a6.78,6.78,0,0,0,1,.05h2.53a6.1,6.1,0,0,0,1-.05V24a8.8,8.8,0,0,0-1,0h-2.51a8.91,8.91,0,0,0-1,0Zm1.48,5.19h1.63v-1.6h-1.63Zm10.94-2.94V23h-6v1.72h-1.61a9,9,0,0,0,.06-1.19v-.94a7.06,7.06,0,0,0-.06-1.16c.17,0,.65,0,1.46.05h6.3a12.94,12.94,0,0,0,1.57-.06,11,11,0,0,0,0,1.14v1a7.22,7.22,0,0,0,.07,1.14Zm-5.76-6.66a9.71,9.71,0,0,0-1.57.08V16.48a9.55,9.55,0,0,0,1.68.09h1.75v-.21a6,6,0,0,0-.1-1.2H139a6.92,6.92,0,0,0-.09,1.22v.19h2.25a9.93,9.93,0,0,0,1.72-.09v1.68a9.78,9.78,0,0,0-1.57-.08h-2.4v1.13h1.84a9.39,9.39,0,0,0,1.52-.08v1.6a10.34,10.34,0,0,0-1.52-.08h-5.08a10.61,10.61,0,0,0-1.52.08v-1.6a9.39,9.39,0,0,0,1.52.08h1.59V18.08Zm4.74,5.57a5.84,5.84,0,0,0-.1,1.13v3.08c0,.32.12.38.66.38s.66-.1.72-.38a12.18,12.18,0,0,0,.13-1.86,6.19,6.19,0,0,0,1.55.58c-.13,1.68-.24,2.27-.51,2.65s-.83.56-2,.56c-1.8,0-2.23-.25-2.23-1.31v-3.7a5.9,5.9,0,0,0-.08-1.13Z"/><path class="cls-2" d="M146.28,21.36a17.17,17.17,0,0,0-1.92.09V19.69a13.08,13.08,0,0,0,2,.1H150V18.4h-2.41a17.27,17.27,0,0,0-1.82.06V16.78a14.05,14.05,0,0,0,1.89.1H150V16.6a8.87,8.87,0,0,0-.1-1.4h1.95a6.8,6.8,0,0,0-.09,1.4v.28h1.15a13.22,13.22,0,0,0,1.79-.1v1.38a11.42,11.42,0,0,0,1.86-2.44l1.58,1-.72.82a24.84,24.84,0,0,1-2.17,2.21h1.64a12.53,12.53,0,0,0,1.83-.1v1.76a17.91,17.91,0,0,0-2-.09h-3.44c-.61.43-1,.7-1.73,1.17.36,0,.88,0,1.3,0h2.35c.77,0,1.22,0,1.68-.05,0,.47-.06.85-.06,1.75v3.95a11.61,11.61,0,0,0,.1,1.81H155v-.69h-5.81V30h-1.87a15.82,15.82,0,0,0,.09-1.81V25.68c0-.26,0-.61,0-.9a27,27,0,0,1-2.55,1.12,6.1,6.1,0,0,0-.94-1.6,26.79,26.79,0,0,0,6.59-2.94Zm2.95,3.79H155V24h-5.79Zm0,2.63H155V26.54h-5.79Zm3.62-8a15.28,15.28,0,0,0,1.53-1.34A12.38,12.38,0,0,0,153,18.4h-1.31v1.39Z"/><path class="cls-2" d="M174.19,18.16a2,2,0,0,0-.29.33A16.1,16.1,0,0,1,172.5,20a16,16,0,0,0,2.43,1.14,5,5,0,0,0-.83,1.6,15.66,15.66,0,0,1-3.88-2.32v.94a6,6,0,0,0-1.07-.06h-3.54a6,6,0,0,0-1,.06v-1a17.27,17.27,0,0,1-4,2.48,4.83,4.83,0,0,0-.87-1.52,13.56,13.56,0,0,0,3-1.58,13.54,13.54,0,0,0-2.14-1.88l1.18-1.05A19.22,19.22,0,0,1,164,18.7a8.13,8.13,0,0,0,1.52-1.62h-2.11a6.71,6.71,0,0,0-1,.07V15.53a6.63,6.63,0,0,0,1.32.08h3a8.86,8.86,0,0,0,1.38-.06,4.09,4.09,0,0,0,1.07,1.81,9.13,9.13,0,0,0,1.35-1.73l1.33.88a18.63,18.63,0,0,1-1.65,1.84,11.57,11.57,0,0,0,1,.8,8.83,8.83,0,0,0,1.58-1.89Zm-9.76,9.89a6.35,6.35,0,0,0-.66-1.3l1.41-.51h-1.71a10.54,10.54,0,0,0-1.15.05,11,11,0,0,0,.06-1.17v-2a9.43,9.43,0,0,0-.06-1.09,9.35,9.35,0,0,0,1.26.07h7.56a8.47,8.47,0,0,0,1.24-.07,8.43,8.43,0,0,0-.06,1.08v2a9.3,9.3,0,0,0,.06,1.17,10.81,10.81,0,0,0-1.15-.05h-1.55l1.33.48c-.26.48-.63,1.17-.74,1.33H173a10.93,10.93,0,0,0,1.57-.08V29.7a11,11,0,0,0-1.67-.08H161.84a11.1,11.1,0,0,0-1.67.08V28a10.53,10.53,0,0,0,1.55.08ZM164,24.8h6.59V23.5H164Zm5.14-4.95h.4a13.16,13.16,0,0,1-2.21-2.51,13,13,0,0,1-2.21,2.51h4Zm-.63,8.2a10.21,10.21,0,0,0,.82-1.81h-4a13.27,13.27,0,0,1,.8,1.81Z"/><path class="cls-2" d="M178.06,20.59c-.35,0-.59,0-.94.05v-.85c-.31.27-.41.35-.74.62a4.89,4.89,0,0,0-.74-1.52,7.37,7.37,0,0,0,2.77-3.45h1.76a6.44,6.44,0,0,0,2.34,2.68,6.05,6.05,0,0,0-1,1.43l-.13-.11v1.2a5.33,5.33,0,0,0-.94-.05H180v1.07h.64a7.09,7.09,0,0,0,1.13-.06V20.27a10.92,10.92,0,0,0,1.54.1h4.05c0-.48,0-.64.06-.92h-3.17a10.47,10.47,0,0,0-1.45.07V18a8.61,8.61,0,0,0,1.45.08h3.24c0-.4,0-.45,0-.88H184a12.32,12.32,0,0,0-1.52.06V15.72a10.11,10.11,0,0,0,1.6.08h3.76a11.53,11.53,0,0,0,1.47-.06c0,.37,0,.37-.09,1.55,0,.83-.13,2.24-.19,3.08h.09a10.4,10.4,0,0,0,1.54-.1v1.58c-.43,0-.93-.08-1.52-.08h-2.15a7.78,7.78,0,0,0,.77,2.37,7.57,7.57,0,0,0,1.55-1.92l1.32.93a18,18,0,0,1-2.13,2.27,7.7,7.7,0,0,0,2.46,2.31,6.87,6.87,0,0,0-1,1.57A9.71,9.71,0,0,1,188,27.23a9.08,9.08,0,0,1-1.22-2.48c0,.32.07.91.1,1.78v2c0,1.07-.47,1.45-1.76,1.45-.35,0-.79,0-1.41-.06a4.44,4.44,0,0,0-.37-1.62,5.72,5.72,0,0,0,1.25.16c.59,0,.7-.06.7-.41V26.58a13,13,0,0,1-1.13.89l-1.36,1c-.26.17-.26.17-.53.37l-.51-1.14v.64a36.34,36.34,0,0,1-4.29,1.14,9.87,9.87,0,0,0-1.27.28L176,28a12.2,12.2,0,0,0,2.5-.33V23.14h-.83a12.62,12.62,0,0,0-1.57.08V21.58a13,13,0,0,0,1.58.08h.82V20.59Zm-1.25,6.63a15.91,15.91,0,0,0-.67-3.12l1.25-.39a18,18,0,0,1,.7,3.11Zm1.28-8.07h2.39a5.16,5.16,0,0,0,.59,0,9.37,9.37,0,0,1-1.7-2.25,9.59,9.59,0,0,1-1.6,2.27Zm5.22,2.62a10.92,10.92,0,0,0-1.43.07v1.38a6,6,0,0,0-1.24-.08H180V27.3c.6-.15.89-.24,1.74-.5v.34a17.43,17.43,0,0,0,3.55-2.32V21.77Zm-3.12,4.47a12.93,12.93,0,0,0,.64-2.61L182,24a14.23,14.23,0,0,1-.76,2.56Zm3.25-4a10.56,10.56,0,0,1,1.39,2.39l-1.23.81a10.69,10.69,0,0,0-1.41-2.54Z"/><path class="cls-2" d="M39.61,35h20a13.56,13.56,0,0,0-20,0Z"/><path class="cls-2" d="M53.4,24A1.51,1.51,0,0,0,52,22.47a1.31,1.31,0,0,0-1.38,1.32,1.61,1.61,0,0,0,1.59,1.54A1.27,1.27,0,0,0,53.4,24Z"/><path class="cls-2" d="M48,20.5a1.26,1.26,0,0,0-1.18,1.3,1.3,1.3,0,0,0,1.28,1.36A1.12,1.12,0,0,0,49.19,22,1.33,1.33,0,0,0,48,20.5Z"/><path class="cls-2" d="M46.25,16.55s-.12-5.31-.12-5.55H44.25c0,.31-.11,5.44-.11,5.44v.16l-3.05.21c0,.25,0,1.61,0,1.89h.22l2.83-.05v1.56l-.05.06a44.51,44.51,0,0,0-3.88,4.45l1.25,1.35,2.71-2.83v.42s.11,5.59.12,5.91h1.88c0-1.49.14-5.79.14-9.35,0-.53,0-1,0-1.53v-.16l2.31-.19V16.51h-.44Z"/><path class="cls-2" d="M56.63,11H54.7c0,.32,0,5.34,0,5.34h-.47L50,16.64c0,.26,0,1.49,0,1.77l4.51-.08h.18l0,2.22.06,6.51,0,.18-2.4-.06c0,.25-.15,1.54-.18,1.8a38,38,0,0,0,4.55.4c.06-1.4.14-6,.14-9.4,0-.57,0-1.1,0-1.58v-.16l2.27-.17V16.33l-2.14,0h-.16S56.64,11.33,56.63,11Z"/></g></g></svg>